<?xml version="1.0" encoding="UTF-8" standalone="no"?>
<!DOCTYPE svg PUBLIC "-//W3C//DTD SVG 1.1//EN" "http://www.w3.org/Graphics/SVG/1.1/DTD/svg11.dtd">
<svg width="100%" height="100%" viewBox="0 0 895 503" version="1.1" xmlns="http://www.w3.org/2000/svg" xmlns:xlink="http://www.w3.org/1999/xlink" xml:space="preserve" xmlns:serif="http://www.serif.com/" style="fill-rule:evenodd;clip-rule:evenodd;stroke-linecap:round;stroke-linejoin:round;stroke-miterlimit:1.5;">
    <g transform="matrix(1,0,0,1,-253.371911,-88.525712)">
        <g id="Blenny" transform="matrix(1,0,0,1,-10,-137.4367)">
            <path id="Body-Color" serif:id="Body Color" d="M285,393L296,290L316,272L372,263L478,272L976,383L1035,388L1052,399L1065,416L1061,444L1050,463L1026,474L987,472L874,484L675,488L481,471L506,499L506,512L495,514L468,504L438,463L444,494L445,505L426,499L413,468L404,452L361,448L324,438L297,418" style="fill:url(#_Linear1);"/>
            <path id="Tail-Color" serif:id="Tail Color" d="M1022,379L1089,356L1116,350L1138,356L1152,386L1154,428L1147,477L1133,505L1119,514L1103,514L1024,480C1024,480 1071,452 1068,429C1063.732,396.277 1022,379 1022,379Z" style="fill:rgb(249,239,255);"/>
            <g id="Tail-White-Spot" serif:id="Tail White Spot" transform="matrix(1.319149,0,0,1.370968,-232.404255,-161.016129)">
                <ellipse cx="958.5" cy="430" rx="23.5" ry="31" style="fill:white;"/>
            </g>
            <g id="Left-Eye-Color" serif:id="Left Eye Color" transform="matrix(1.294118,0,0,1.147541,-119.117647,-47.377049)">
                <ellipse cx="379.5" cy="324.5" rx="25.5" ry="30.5" style="fill:white;"/>
            </g>
            <path d="M280,350L269,340L267,315L280,294L293,286L298,290L287,350L280,350Z" style="fill:white;"/>
            <path id="Ventral-Fin-Color" serif:id="Ventral Fin Color" d="M679,489L704,514L761,530L843,530L954,514L983,504L997,494L991,481L982,474L845,486L679,489" style="fill:rgb(249,239,255);stroke:black;stroke-width:1px;"/>
            <path id="Dorsal-Fin-Color" serif:id="Dorsal Fin Color" d="M450,267L495,235L527,230L573,237L744,284L852,307L945,327L985,343L1001,356L997,371L983,382L450,267Z" style="fill:rgb(249,239,255);stroke:black;stroke-width:1px;"/>
            <g id="Pectoral-Fin-Highlight" serif:id="Pectoral Fin Highlight" transform="matrix(1,0,0,1,-1,0)">
                <path d="M524,384L568,373L597,375L620,382L635,397L647,428L643,443L632,455L610,465L582,467L536,446L521,432C521,432 552.871,446.38 556,413C559,381 524,384 524,384Z" style="fill:rgb(249,239,255);fill-opacity:0.63;"/>
            </g>
            <path id="BlennyOutline" d="M771,534.344C739.662,532.206 717.612,525.26 695.5,510.561C690.55,507.27 683.437,501.594 679.694,497.946L672.888,491.315L652.182,490.67C613.248,489.457 547.584,484.097 510,479.064C502.025,477.995 493.475,476.907 491,476.646L486.5,476.17L490,478.814C495.257,482.785 502.589,490.775 507.085,497.433C510.639,502.695 511.058,503.934 510.796,508.399C510.532,512.887 510.12,513.691 507,515.812C503.885,517.93 502.676,518.141 496,517.736C482.368,516.908 470.499,511.218 459.009,500C455.347,496.425 451.705,492.45 450.914,491.167C449.605,489.041 449.51,489.547 449.842,496.859C450.183,504.374 450.044,505.047 447.649,507.442C445.741,509.35 444.054,510 441.013,510C426.451,510 412.94,494.651 406.929,471.28C404.907,463.418 404.185,461.913 402.029,461.066C400.638,460.52 390.05,458.023 378.5,455.518C353.67,450.132 348.587,448.818 336,444.532C324.691,440.681 314.342,435.679 306.342,430.196C295.213,422.569 291.134,417.679 289.493,410C289.015,407.765 287.372,405.32 284.945,403.234C279.17,398.271 278.58,395.31 279.939,378.149C280.578,370.092 281.353,361.859 281.661,359.853C282.133,356.789 281.897,356.102 280.183,355.558C277.455,354.692 270.436,347.461 267.507,342.5C256.189,323.328 269.462,290.463 290.848,284.704C293.75,283.922 295.897,282.529 297.301,280.516C304.341,270.427 319.254,265.004 345.305,263.061C352.012,262.561 360.875,261.411 365,260.505C373.05,258.737 379.676,258.97 389,261.352C392.655,262.286 403.115,262.943 420.179,263.311L445.859,263.865L456.583,255.365C478.265,238.179 495.391,229.382 511.777,227.012C533.738,223.836 558.504,227.693 601.5,240.984C694.916,269.863 729.814,278.773 819,296.515C908.895,314.398 935.262,320.643 969.5,332.157C994.499,340.564 1008.641,352.126 1006.435,362.354C1005.306,367.584 1002.331,372.51 998.566,375.382C993.086,379.562 993.879,380.374 1002.75,379.674C1017.921,378.476 1038.886,372.191 1065.91,360.741C1099.403,346.549 1122.018,342.718 1133.295,349.327C1138.7,352.495 1145.365,359.82 1148.466,366C1158.492,385.986 1161.192,427.593 1154.631,461C1151.086,479.045 1141.85,499.205 1132.817,508.612C1125.464,516.27 1119.199,519.237 1110.493,519.187C1100.609,519.13 1092.728,516.465 1071,505.832C1030.86,486.189 1011.471,478.522 998.996,477.363C991.925,476.706 990.309,477.463 993.941,479.731C995.009,480.398 997.06,482.952 998.499,485.408C1003.804,494.461 998.779,502.241 983.923,507.969C967.017,514.489 939.094,521.151 910.5,525.488C901.15,526.906 892.825,528.26 892,528.496C889.105,529.327 873.276,531 849.5,532.988C827.68,534.812 787.934,535.499 771,534.344ZM835.5,526.971C891.848,523.222 955.106,511.924 981.671,500.865C991.045,496.962 993.223,494.972 992.809,490.691C992.545,487.96 991.45,486.808 985.21,482.695L977.921,477.89L964.508,479.445C957.131,480.3 949.526,481 947.607,481C945.688,481 943.862,481.415 943.548,481.922C943.235,482.43 948.613,485.65 955.499,489.079C962.386,492.507 967.86,495.474 967.663,495.671C966.883,496.45 952.979,491.572 943.943,487.348L934.387,482.88L902.5,485.578L909.76,490.344C913.753,492.966 921.853,497.544 927.76,500.518C940.099,506.73 938.994,507.689 925.624,502.371C916.218,498.63 911.957,496.438 901.303,489.861L895.106,486.036L882.303,486.652C875.261,486.99 868.88,487.595 868.122,487.995C866.649,488.773 884.845,502.587 894.75,508.21C902.014,512.334 902.324,513.559 895.32,510.468C885.882,506.301 877.043,501.205 868.331,494.906L860.163,489L849.331,489.088C843.374,489.136 836.25,489.473 833.5,489.838L828.5,490.5L835.5,496.328C843.591,503.065 855.917,511.926 862.17,515.501C869.107,519.466 864.181,518.376 855.803,514.092C847.555,509.874 839.617,504.735 828.368,496.329L821.235,491L808.868,491.014C791.062,491.033 791,491.068 797.856,497.352C805.082,503.975 813.795,510.653 822.009,515.864C830.032,520.953 828.376,521.214 818.725,516.383C809.939,511.985 800.725,505.631 791.835,497.841L785.17,492L770.085,492C761.788,492 755,492.354 755,492.786C755,494.071 774.792,510.082 783.354,515.724C793.332,522.3 793.617,522.608 787.49,520.193C777.573,516.284 763.501,506.963 752.558,497.053L746.979,492L732.989,492C725.295,492 719,492.186 719,492.414C719,493.445 735.659,506.568 744.601,512.58C754.287,519.093 754.315,520.161 744.673,515.315C737.172,511.544 727.217,504.889 719,498.152L711.5,492.002L683.5,492.09L688.5,496.608C694.714,502.224 708.778,511.038 718.847,515.627C731.941,521.593 745.694,524.735 770,527.309C777.763,528.132 821.449,527.906 835.5,526.971L835.5,526.971ZM1117.703,510.794C1126.222,507.121 1134.373,496.626 1140.49,481.457C1147.782,463.375 1151.159,444.483 1151.12,422C1151.081,399.609 1148.049,383.118 1141.438,369.328C1136.22,358.444 1128.639,353 1118.699,353C1109.7,353 1086.053,360.043 1066.411,368.573C1055.294,373.401 1033.535,380.962 1030.691,380.985C1027.584,381.011 1029.823,382.794 1033.806,383.467C1035.894,383.82 1040.134,385.386 1043.228,386.946L1048.854,389.784L1052.177,387.563C1065.861,378.42 1087.97,367.356 1101.306,362.978C1112.399,359.336 1110.54,360.942 1094.461,368.89C1080.76,375.664 1064.767,384.96 1055.991,391.253L1053.545,393.007L1056.658,396.119L1059.77,399.232L1073.635,393.696C1099.52,383.36 1127.156,374.257 1124.429,376.964C1123.918,377.471 1118.55,379.889 1112.5,382.336C1099.311,387.672 1078.056,396.677 1068.797,400.852L1062.095,403.874L1063.797,407.927C1064.734,410.156 1066.175,411.982 1067,411.986C1067.825,411.989 1074.125,410.899 1081,409.563C1095.605,406.724 1124.275,402.961 1130.312,403.089L1134.5,403.179L1129.5,404.59C1126.75,405.366 1112.35,408.266 1097.5,411.034C1065.932,416.918 1066.681,416.727 1067.428,418.672C1067.742,419.492 1068,421.184 1068,422.432C1068,424.679 1068.167,424.707 1085.75,425.383C1107.93,426.237 1130.116,427.908 1133.741,428.998C1135.34,429.479 1122.101,429.864 1102.25,429.914L1068,430L1068,440.67L1095.75,449.512C1122.481,458.03 1130.628,460.878 1128.5,460.961C1124.308,461.124 1083.557,451.179 1071.898,447.147L1066.297,445.21L1064.148,449.632C1062.967,452.064 1062,454.498 1062,455.04C1062,456.038 1095.503,472.99 1113,480.845C1120.403,484.168 1121.617,484.969 1118.5,484.47C1111.261,483.311 1070.339,466.845 1062.203,461.816L1058.848,459.743L1054.924,463.574C1052.766,465.682 1051,467.774 1051,468.223C1051,469.484 1078.147,487.068 1090.811,494.01C1097.032,497.421 1101.893,500.44 1101.613,500.72C1099.953,502.38 1054.568,478.62 1048.344,472.833C1046.484,471.104 1045.867,471.002 1043.844,472.093C1042.555,472.788 1038.35,474.366 1034.5,475.599C1029.133,477.318 1027.967,478.003 1029.5,478.534C1033.666,479.978 1063.05,493.583 1076.076,500.1C1097.988,511.062 1109.953,514.136 1117.703,510.794ZM503.702,509.335C505.549,504.52 492.018,488.208 476.1,476.063C468.135,469.985 461.51,462.829 458.557,457.113L456.807,453.727L460.154,456.065C461.994,457.352 465.814,460.131 468.642,462.241C471.471,464.351 475.296,466.528 477.142,467.078C486.786,469.951 565.162,478.299 612,481.442C714.879,488.346 841.202,485.205 958.771,472.821C987.365,469.809 989.69,469.702 1000.771,470.886C1029.091,473.913 1048.008,466.076 1056.946,447.613C1062.101,436.962 1062.126,420.828 1057.002,410.377C1049.234,394.534 1033.004,387.521 1002.583,386.862C996.578,386.732 988.028,386.072 983.583,385.397C966.604,382.816 934.635,376.936 913.5,372.506C901.4,369.97 885.2,366.592 877.5,364.999C869.8,363.406 853.375,359.816 841,357.02C828.625,354.223 810.625,350.183 801,348.041C791.375,345.898 775.4,342.289 765.5,340.02C737.925,333.701 714.218,328.287 695.5,324.034C686.15,321.91 671.483,318.577 662.907,316.627C654.331,314.678 638.581,311.001 627.907,308.458C617.233,305.915 600.175,301.872 590,299.475C579.825,297.077 564.75,293.502 556.5,291.531C502.73,278.679 458.477,271.611 424,270.366L407.5,269.771L411,272.408C415.595,275.871 419.77,281.507 420.976,285.877C421.51,287.808 421.764,289.569 421.542,289.791C421.32,290.013 417.717,287.21 413.535,283.563C400.221,271.951 393.275,268.52 379,266.501C372.855,265.632 361.851,267.552 355.095,270.672C350.933,272.594 346.748,276.077 338.75,284.275C331.434,291.774 328.003,294.688 328.01,293.397C328.029,289.677 333.012,280.867 338.201,275.381L343.473,269.807L338.487,270.502C330.144,271.664 316.722,275.134 312.709,277.164C306.864,280.122 301.679,285.951 299.253,292.291C296.406,299.73 294.642,310.267 291.517,338.5C285.749,390.608 285.608,395.649 289.847,397.918C293.517,399.882 313.197,401.999 327.628,401.983C343.519,401.964 352.201,400.64 360.345,396.992C365.036,394.891 365.124,394.775 363.095,393.354C359.796,391.043 360.447,389 364.482,389C369.333,389 377,396.209 377,400.77C377,405.298 375.115,405.813 371.863,402.172L369.051,399.026L365.35,401.537C363.314,402.919 358.465,405.051 354.574,406.275C348.247,408.265 345.389,408.5 327.5,408.5C316.5,408.5 304.861,408.153 301.636,407.728L295.772,406.956L296.403,409.728C297.244,413.419 307.769,423.193 316.216,428.126C323.04,432.112 336.462,437.664 347.562,441.092C385.715,452.876 426.568,446.808 458.323,424.641C474.563,413.305 490.397,394.94 498.277,378.304C501.277,371.971 501.499,370.773 501.482,361C501.465,351.334 501.214,349.969 498.323,343.813C496.596,340.134 493.868,335.184 492.261,332.813C487.947,326.443 487.746,326 489.164,326C491.611,326 501.593,337.731 504.989,344.597C507.948,350.578 508.459,352.722 508.817,360.65C509.322,371.837 507.392,378.481 500.052,390.816C488.271,410.616 469.097,428.575 448.342,439.25C437.186,444.988 420.806,450.59 410.502,452.192L402.551,453.428L408.026,454.605C428.811,459.073 433.376,460 434.591,460C435.345,460 436.258,458.762 436.619,457.25C436.981,455.738 437.499,454.108 437.772,453.629C438.044,453.15 441.701,459.47 445.897,467.672C450.093,475.875 455.258,484.945 457.374,487.829C466.595,500.39 484.745,510.768 497.781,510.933C501.828,510.984 503.212,510.611 503.702,509.335ZM585.583,469.79C573.129,468.191 561.41,464.069 547,456.22C534.063,449.174 514,433.699 514,430.766C514,428.745 522.654,433.01 536.5,441.857C563.854,459.334 590.232,467.069 606.358,462.341C607.5,462.006 601.91,459.709 591.858,456.382C575.373,450.925 550.271,439.362 544.5,434.566L541.5,432.073L544.5,432.896C546.15,433.349 551.1,435.411 555.5,437.479C578.313,448.199 608.054,460.34 611.581,460.372C622.551,460.472 642,442.252 642,431.876C642,429.289 641.695,429.111 636.25,428.522C613.263,426.035 556.944,415.168 554.5,412.748C553.205,411.465 562.796,412.427 578,415.104C589.61,417.148 635.587,426.461 639.75,427.611C641.855,428.193 642,427.927 642,423.483C642,420.87 641.486,417.016 640.857,414.918C639.801,411.392 639.33,411.022 634.607,410.002C621.904,407.259 599.322,405.122 564.75,403.391C558.288,403.067 553,402.397 553,401.901C553,401.022 564.331,400.681 584.5,400.953C596.822,401.119 616.279,403.389 628.266,406.059C633.217,407.162 637.499,407.834 637.781,407.553C638.508,406.825 633.512,399.511 628.785,394.382C626.392,391.786 623.308,389.624 621.137,389.021C615.644,387.496 582.092,387.792 568.458,389.486C546.491,392.217 546.401,392.223 547.652,390.96C548.285,390.32 555.26,388.668 563.152,387.289C578.112,384.674 604.842,383.603 613.5,385.271L617.5,386.041L613.5,383.5C605.234,378.248 596.958,376.498 580.5,376.521C567.815,376.539 562.953,377.035 549,379.729C539.925,381.482 529.855,383.219 526.623,383.589C516.999,384.691 520.099,382.111 533.563,377.811C577.108,363.903 606.309,366.305 629.516,385.703C642.615,396.651 649.184,410.031 649.201,425.795C649.215,438.178 646.535,444.581 637.563,453.6C624.528,466.703 606.14,472.431 585.583,469.79ZM626,448.323C624.625,448.1 617.2,446.339 609.5,444.41C582.327,437.601 549.097,425.57 551.321,423.346C551.524,423.143 559.522,425.494 569.095,428.571C578.668,431.647 595.5,437.015 606.5,440.499C631.81,448.515 634.942,449.772 626,448.323ZM361.676,361.607C350.975,357.628 343.267,349.663 338.934,338.105C335.891,329.99 336.457,316.782 340.191,308.782C343.722,301.218 350.929,293.674 357.874,290.273C362.744,287.887 364.709,287.517 372.5,287.514C380.454,287.511 382.168,287.849 387.25,290.418C406.286,300.041 413.754,322.68 404.406,342.423C400.741,350.165 396.051,355.16 388.826,359.019C383.314,361.962 381.406,362.438 374,362.713C368.392,362.921 364.199,362.545 361.676,361.607ZM382.266,355.425C391.525,352.27 399.319,342.685 402.002,331.154C406.295,312.702 390.806,292.432 372.5,292.547C361.498,292.616 351.009,299.659 345.452,310.71C342.927,315.731 342.538,317.628 342.52,325C342.503,332.377 342.872,334.227 345.317,339C353.048,354.092 367.424,360.482 382.266,355.425ZM368.491,346.191C354.825,339.792 351.909,321.864 362.861,311.576C367.573,307.148 375.781,304.828 380.425,306.61C381.75,307.118 381.514,307.789 379.007,310.645C375.236,314.94 375.217,317.37 378.923,321.077C382.868,325.022 387.146,325.008 391.116,321.038L394.078,318.076L395.039,320.603C396.758,325.124 396.157,332.389 393.673,337.093C388.801,346.321 377.494,350.407 368.491,346.191L368.491,346.191ZM443,499.109C443,494.571 438.983,478.498 436.229,472.019L434.324,467.539L423.662,465.465C415.543,463.886 413,463.691 413,464.647C413,466.998 415.8,476.486 417.973,481.5C422.693,492.389 433.649,503 440.171,503C442.791,503 443,502.713 443,499.109ZM984.478,375.353C991.229,373.053 999,365.472 999,361.187C999,349.698 971.047,337.428 914,323.876C892.511,318.77 859.965,311.776 838,307.543C768.353,294.119 706.361,280.082 674.5,270.52C670.1,269.2 657.95,265.594 647.5,262.507C637.05,259.421 626.7,256.271 624.5,255.509C616.103,252.599 569.179,239.02 562.5,237.568C540.743,232.835 523.672,231.848 510.208,234.543C502.098,236.166 488.2,242.269 478.329,248.541C471.038,253.174 456.065,264.295 456.028,265.104C456.012,265.437 460.838,266.265 466.75,266.945C472.663,267.625 479.412,268.593 481.749,269.095C485.877,269.982 486.253,269.837 494.864,264.038C508.939,254.559 525.77,246.687 539.938,242.958C552.006,239.781 551.314,240.705 537,246.878C529.575,250.08 519.9,254.707 515.5,257.16C505.881,262.523 493.861,270.194 494.334,270.668C494.522,270.855 502.64,272.612 512.375,274.573L530.074,278.136L537.287,273.48C547.33,266.996 568.884,256.665 578.802,253.581C583.368,252.161 587.418,251.002 587.802,251.004C589.151,251.011 582.413,254.709 578.976,255.847C571.455,258.337 537.13,278.463 538.34,279.673C538.643,279.976 546.065,281.892 554.833,283.931L570.775,287.638L580.137,281.732C590.708,275.064 602.551,269.221 614.217,264.92C623.704,261.422 627.626,261.149 620.252,264.5C606.44,270.777 576.933,288.669 579.097,289.455C584.289,291.341 606.275,295.838 607.724,295.31C608.701,294.954 611.428,293.357 613.784,291.76C622.869,285.604 652.201,273.234 655.281,274.26C655.796,274.432 652.006,276.529 646.859,278.921C641.712,281.313 632.151,286.438 625.613,290.312C616.382,295.781 614.148,297.503 615.613,298.02C616.651,298.387 622.971,299.949 629.658,301.491L641.816,304.296L648.201,300.263C658.064,294.034 670.316,288.165 680.194,284.937C685.137,283.321 689.702,282.006 690.34,282.014C690.978,282.022 687,284.196 681.5,286.844C672.077,291.382 648,304.785 648,305.493C648,305.672 653.839,307.23 660.974,308.956L673.949,312.094L679.473,308.56C682.512,306.617 688.036,303.502 691.749,301.638C699.607,297.694 718.003,290.67 718.686,291.352C718.943,291.609 714.724,294.016 709.311,296.701C699.269,301.681 682.431,311.493 681.59,312.854C681.334,313.269 687.168,314.962 694.555,316.616L707.985,319.625L718.743,313.147C729.017,306.959 749.352,297.617 751.203,298.234C751.685,298.395 747.224,301.271 741.29,304.625C735.355,307.979 726.952,313.002 722.616,315.787L714.732,320.851L718.616,321.887C720.752,322.457 726.283,323.799 730.906,324.87L739.312,326.818L747.011,321.993C757.008,315.728 768.664,309.912 777.81,306.626C788.432,302.81 788.319,303.362 777.299,309.113C764.419,315.834 746.814,327.214 747.789,328.189C748.48,328.88 765.648,333.167 773.653,334.647C776.25,335.127 778.458,334.261 786.153,329.743C798.007,322.784 805.948,318.795 815.488,315.005C827.903,310.073 827.3,311.607 814,318.792C807.125,322.506 797.451,327.995 792.502,330.989L783.504,336.434L788.002,337.598C790.476,338.238 796.486,339.698 801.357,340.843L810.214,342.925L815.357,339.653C825.015,333.51 835.634,328.061 845.57,324.15C860.666,318.208 861.549,318.336 849.5,324.722C836.153,331.797 819.218,341.838 818.398,343.165C818.069,343.697 817.957,344.289 818.15,344.479C818.342,344.669 823.675,345.912 830,347.239L841.5,349.654L847,346.236C855.701,340.829 869.675,334.445 880,331.16C897.64,325.547 897.267,325.964 875.763,335.892C864.751,340.976 849,349.879 849,351.02C849,351.372 854.802,352.86 861.892,354.327L874.785,356.994L883.183,352.527C887.802,350.07 894.927,346.68 899.016,344.993C906.812,341.779 925.831,335.952 928.149,336.068C929.693,336.145 929.278,336.342 914.884,342.389C902.377,347.642 884.404,356.538 883.569,357.888C883.011,358.792 889.079,360.428 902.741,363.056C908.95,364.251 909.018,364.238 915.741,360.718C928.315,354.135 957.157,345.673 961.294,347.352C961.957,347.622 961.6,347.882 960.5,347.931C957.04,348.085 939.96,354.481 928.126,360.054C919.291,364.214 917.17,365.58 918.626,366.172C919.657,366.591 926.476,368.048 933.78,369.41L947.061,371.887L951.954,369.429C958.827,365.977 975.246,361.075 981.903,360.488L987.5,359.994L979.5,362.838C969.944,366.236 955.501,372.834 956.165,373.499C956.792,374.125 972.661,376.769 976.572,376.898C978.261,376.954 981.819,376.259 984.478,375.353ZM283.875,340C283.973,336.059 283.639,335.302 281.181,333.904C271.228,328.244 273.689,306.919 284.935,301.378C288.577,299.583 289.586,298.46 290.58,295.096C291.245,292.843 291.454,291 291.045,291C289.631,291 282.489,296.684 279,300.586C272.892,307.417 269.506,317.857 270.21,327.694C270.782,335.689 272.678,339.901 278.359,345.801L282.5,350.102L283.132,347.301C283.479,345.76 283.814,342.475 283.875,340ZM288.332,306.56L288.936,302.62L286.863,304.693C285.215,306.34 284.938,307.44 285.511,310.051C286.357,313.904 287.406,312.607 288.332,306.56Z" style="fill-rule:nonzero;"/>
            <g transform="matrix(1.06383,0,0,1.016129,18.319149,-8.435484)">
                <ellipse cx="958.5" cy="430" rx="23.5" ry="31"/>
            </g>
        </g>
        <g transform="matrix(0.538462,0,0,0.538462,837.366903,520.57764)">
            <g transform="matrix(1,0,0,1,-130,-130)">
                <path d="M9.75,0L250.25,0C255.635,0 260,4.365 260,9.75L260,250.25C260,255.635 255.635,260 250.25,260L9.75,260C4.365,260 0,255.635 0,250.25L0,9.75C0,4.365 4.365,0 9.75,0Z" style="fill:white;fill-rule:nonzero;"/>
                <path d="M9.75,0L250.25,0C255.635,0 260,4.365 260,9.75L260,250.25C260,255.635 255.635,260 250.25,260L9.75,260C4.365,260 0,255.635 0,250.25L0,9.75C0,4.365 4.365,0 9.75,0ZM144.53,138.32L144.53,116.996L51.998,116.996L51.998,138.32L85.034,138.32L85.034,233.266L111.332,233.266L111.332,138.32L144.53,138.32ZM155.015,230.759C159.256,232.921 164.272,234.543 170.063,235.624C175.853,236.705 181.956,237.246 188.372,237.246C194.625,237.246 200.565,236.651 206.192,235.462C211.82,234.273 216.754,232.313 220.995,229.583C225.236,226.853 228.593,223.286 231.067,218.88C233.541,214.474 234.778,209.028 234.778,202.541C234.778,197.838 234.071,193.717 232.658,190.176C231.244,186.635 229.205,183.486 226.541,180.729C223.877,177.972 220.682,175.499 216.958,173.31C213.233,171.121 209.033,169.053 204.357,167.107C200.932,165.701 197.86,164.336 195.141,163.012C192.423,161.688 190.112,160.336 188.209,158.958C186.306,157.579 184.838,156.12 183.805,154.579C182.772,153.039 182.255,151.295 182.255,149.349C182.255,147.565 182.718,145.957 183.642,144.525C184.566,143.092 185.871,141.862 187.557,140.835C189.242,139.808 191.308,139.011 193.755,138.443C196.202,137.876 198.92,137.592 201.911,137.592C204.085,137.592 206.383,137.754 208.802,138.078C211.222,138.403 213.655,138.903 216.101,139.578C218.548,140.254 220.927,141.105 223.238,142.133C225.549,143.16 227.683,144.349 229.64,145.7L229.64,121.456C225.671,119.942 221.335,118.82 216.632,118.091C211.928,117.361 206.532,116.996 200.443,116.996C194.244,116.996 188.372,117.658 182.826,118.983C177.28,120.307 172.401,122.375 168.187,125.186C163.973,127.997 160.643,131.578 158.196,135.929C155.749,140.281 154.526,145.484 154.526,151.538C154.526,159.269 156.769,165.864 161.255,171.323C165.74,176.783 172.55,181.405 181.685,185.189C185.273,186.649 188.617,188.081 191.716,189.487C194.815,190.892 197.493,192.352 199.749,193.865C202.006,195.379 203.786,197.027 205.091,198.811C206.396,200.595 207.049,202.622 207.049,204.893C207.049,206.569 206.641,208.123 205.825,209.555C205.01,210.988 203.773,212.231 202.115,213.285C200.456,214.339 198.39,215.164 195.916,215.758C193.442,216.353 190.547,216.65 187.23,216.65C181.576,216.65 175.976,215.664 170.43,213.691C164.884,211.718 159.746,208.758 155.015,204.812L155.015,230.759Z" style="fill:rgb(49,120,198);fill-rule:nonzero;"/>
            </g>
        </g>
    </g>
    <defs>
        <linearGradient id="_Linear1" x1="0" y1="0" x2="1" y2="0" gradientUnits="userSpaceOnUse" gradientTransform="matrix(780,0,0,251,285,388.5)"><stop offset="0" style="stop-color:rgb(129,208,255);stop-opacity:1"/><stop offset="1" style="stop-color:rgb(255,135,0);stop-opacity:1"/></linearGradient>
    </defs>
</svg>
